<svg width="18" height="19" viewBox="0 0 18 19" fill="none" xmlns="http://www.w3.org/2000/svg">
<g clip-path="url(#clip0_1299_467)">
<path d="M4.32934 6.29272H0.911621V18.8244H4.32934V6.29272Z" fill="#82BC1E"/>
<path d="M2.62062 4.83459C3.7217 4.83459 4.61429 3.93689 4.61429 2.82953C4.61429 1.72216 3.7217 0.824463 2.62062 0.824463C1.51955 0.824463 0.626953 1.72216 0.626953 2.82953C0.626953 3.93689 1.51955 4.83459 2.62062 4.83459Z" fill="#82BC1E"/>
<path d="M18.0003 18.8245H14.5826V12.4447C14.5826 8.60546 10.0256 8.89027 10.0256 12.4447V18.8245H6.60791V6.2928H10.0256V8.29787C11.6092 5.35863 18.0003 5.14217 18.0003 11.1232V18.8245Z" fill="#82BC1E"/>
</g>
<defs>
<clipPath id="clip0_1299_467">
<rect width="17.3734" height="18" fill="white" transform="translate(0.626953 0.824463)"/>
</clipPath>
</defs>
</svg>
