<svg width="23" height="19" viewBox="0 0 23 19" fill="none" xmlns="http://www.w3.org/2000/svg">
<path d="M22.5252 2.97657C21.8176 3.28106 21.0738 3.4931 20.3121 3.60743C20.6682 3.54638 21.1922 2.90025 21.4008 2.64078C21.7286 2.24591 21.9773 1.79164 22.1334 1.30274C22.1334 1.26713 22.169 1.21625 22.1334 1.19081C22.1152 1.18184 22.0952 1.17717 22.0749 1.17717C22.0546 1.17717 22.0346 1.18184 22.0164 1.19081C21.1893 1.63874 20.3089 1.98061 19.3963 2.20834C19.364 2.21743 19.3299 2.21749 19.2976 2.20852C19.2653 2.19955 19.2361 2.18189 19.2131 2.15746C19.1433 2.07332 19.0668 1.99505 18.9842 1.92343C18.6052 1.59937 18.1777 1.33671 17.7174 1.14502C17.0997 0.89542 16.4334 0.789312 15.7688 0.834682C15.1227 0.873113 14.4919 1.04642 13.9169 1.34344C13.3426 1.64545 12.8355 2.06084 12.4263 2.56447C12.0009 3.08453 11.6968 3.69282 11.5359 4.34514C11.3988 4.96372 11.3833 5.60304 11.4901 6.22755C11.4901 6.33439 11.4901 6.34966 11.3985 6.3344C7.79651 5.82564 4.81006 4.50794 2.38835 1.75554C2.28151 1.63852 2.22556 1.63852 2.13907 1.75554C1.08084 3.34796 1.59471 5.90195 2.91749 7.1535C3.09555 7.3214 3.27869 7.48929 3.47202 7.66227C2.86392 7.61033 2.27235 7.43736 1.73206 7.1535C1.63031 7.08737 1.57434 7.12806 1.56416 7.24508C1.56014 7.41522 1.57035 7.5854 1.59469 7.75384C1.70135 8.56494 2.02127 9.33323 2.52179 9.98033C3.0223 10.6274 3.68553 11.1302 4.44377 11.4373C4.62802 11.5171 4.82096 11.5752 5.01868 11.6103C4.45759 11.7232 3.8816 11.7421 3.31431 11.6662C3.1922 11.6662 3.14133 11.7018 3.19221 11.8239C3.94009 13.859 5.56304 14.4746 6.75354 14.8256C6.91635 14.8511 7.07915 14.8511 7.2623 14.8918C7.2623 14.8918 7.2623 14.8918 7.23178 14.9172C6.82986 15.5328 5.43585 15.9907 4.78464 16.2146C3.59539 16.639 2.32865 16.8021 1.07068 16.6928C0.872261 16.6623 0.826464 16.6623 0.775588 16.6928C0.724712 16.7233 0.77558 16.7742 0.831544 16.8251C1.08593 16.993 1.34032 17.1405 1.60487 17.2829C2.39249 17.706 3.22535 18.0388 4.08763 18.275C8.55456 19.5113 13.5811 18.6057 16.9339 15.2733C19.5693 12.6583 20.4952 9.05118 20.4952 5.43897C20.4952 5.29652 20.6631 5.2202 20.7597 5.14389C21.4281 4.62653 22.0177 4.0147 22.5099 3.32761C22.5858 3.22825 22.6269 3.10668 22.6269 2.98165C22.6167 2.9206 22.6117 2.93586 22.5252 2.97657Z" fill="#82BC1E"/>
</svg>
