<svg width="21" height="30" viewBox="0 0 21 30" fill="none" xmlns="http://www.w3.org/2000/svg">
<path fill-rule="evenodd" clip-rule="evenodd" d="M19.5459 10.2646C19.5459 15.5409 15.8797 18.5759 13.1322 21.5146C11.4872 23.2746 10.1709 29.0146 10.1709 29.0146C10.1709 29.0146 8.8584 23.2784 7.21715 21.5234C4.46715 18.5859 0.795898 15.5459 0.795898 10.2646C0.795898 5.08698 4.99323 0.889648 10.1709 0.889648C15.3486 0.889648 19.5459 5.08698 19.5459 10.2646Z" stroke="black" stroke-width="1.5" stroke-linecap="round" stroke-linejoin="round"/>
<path fill-rule="evenodd" clip-rule="evenodd" d="M10.1709 14.0146C12.242 14.0146 13.9209 12.3357 13.9209 10.2646C13.9209 8.19358 12.242 6.51465 10.1709 6.51465C8.09983 6.51465 6.4209 8.19358 6.4209 10.2646C6.4209 12.3357 8.09983 14.0146 10.1709 14.0146Z" stroke="black" stroke-width="1.5" stroke-linecap="round" stroke-linejoin="round"/>
</svg>
