<svg width="27" height="26" viewBox="0 0 27 26" fill="none" xmlns="http://www.w3.org/2000/svg">
<path d="M26.0477 2.65082V2.65078C26.0473 1.63013 25.2417 0.792969 24.2427 0.792969H2.32813C1.32941 0.792969 0.523438 1.6298 0.523438 2.65082V23.9451C0.523438 24.9658 1.32908 25.803 2.32813 25.803H24.243C25.2417 25.803 26.0477 24.9661 26.0477 23.9451V2.65082ZM2.32813 1.81367H24.243C24.6846 1.81367 25.0506 2.18561 25.0506 2.65082V6.02853H1.5205V2.65082C1.5205 2.18561 1.88653 1.81367 2.32813 1.81367ZM24.2427 24.7823H2.32813C1.88653 24.7823 1.5205 24.4103 1.5205 23.9451V7.04923H25.0503V23.9451C25.0503 24.4103 24.6843 24.7823 24.2427 24.7823Z" fill="#82BC1E" stroke="#82BC1E" stroke-width="0.25"/>
<path d="M8.24543 9.79297H4.5454C4.26654 9.79297 4.04688 10.0253 4.04688 10.3033V14.1201C4.04688 14.3982 4.26654 14.6305 4.5454 14.6305H8.24543C8.52429 14.6305 8.74396 14.3982 8.74396 14.1201V10.3033C8.74396 10.025 8.52459 9.79297 8.24543 9.79297ZM7.7469 13.6098H5.04393V10.8134H7.7469V13.6098Z" fill="#82BC1E" stroke="#82BC1E" stroke-width="0.25"/>
<path d="M8.24543 17.4277H4.5454C4.26653 17.4277 4.04688 17.66 4.04688 17.9381V21.7554C4.04688 22.0334 4.26653 22.2657 4.5454 22.2657H8.24543C8.5243 22.2657 8.74396 22.0334 8.74396 21.7554V17.9381C8.74396 17.6601 8.52466 17.4277 8.24543 17.4277ZM7.7469 21.245H5.04393V18.4485H7.7469V21.245Z" fill="#82BC1E" stroke="#82BC1E" stroke-width="0.25"/>
<path d="M15.1354 9.79297H11.436C11.1572 9.79297 10.9375 10.0253 10.9375 10.3033V14.1201C10.9375 14.3982 11.1572 14.6305 11.436 14.6305H15.1354C15.4143 14.6305 15.634 14.3982 15.634 14.1201V10.3033C15.634 10.025 15.4146 9.79297 15.1354 9.79297ZM14.6372 13.6098H11.9346V10.8134H14.6372V13.6098Z" fill="#82BC1E" stroke="#82BC1E" stroke-width="0.25"/>
<path d="M15.1354 17.4277H11.436C11.1572 17.4277 10.9375 17.66 10.9375 17.9381V21.7554C10.9375 22.0334 11.1572 22.2657 11.436 22.2657H15.1354C15.4143 22.2657 15.634 22.0334 15.634 21.7554V17.9381C15.634 17.6601 15.4147 17.4277 15.1354 17.4277ZM14.6372 21.245H11.9346V18.4485H14.6372V21.245Z" fill="#82BC1E" stroke="#82BC1E" stroke-width="0.25"/>
<path d="M22.0228 9.79297H18.3227C18.0439 9.79297 17.8242 10.0253 17.8242 10.3033V14.1201C17.8242 14.3982 18.0439 14.6305 18.3227 14.6305H22.0228C22.3016 14.6305 22.5213 14.3982 22.5213 14.1201V10.3033C22.5213 10.0249 22.3016 9.79297 22.0228 9.79297ZM21.5242 13.6098H18.8213V10.8134H21.5242V13.6098Z" fill="#82BC1E" stroke="#82BC1E" stroke-width="0.25"/>
<path d="M22.0228 17.4277H18.3227C18.0439 17.4277 17.8242 17.66 17.8242 17.9381V21.7554C17.8242 22.0334 18.0439 22.2657 18.3227 22.2657H22.0228C22.3016 22.2657 22.5213 22.0334 22.5213 21.7554V17.9381C22.5213 17.66 22.3016 17.4277 22.0228 17.4277ZM21.5242 21.245H18.8213V18.4485H21.5242V21.245Z" fill="#82BC1E" stroke="#82BC1E" stroke-width="0.25"/>
</svg>
