<svg width="126" height="23" viewBox="0 0 126 23" fill="none" xmlns="http://www.w3.org/2000/svg">
<path fill-rule="evenodd" clip-rule="evenodd" d="M125.13 0.627274H0V22.7673H125.13V0.627274ZM14.2112 8.51652L11.6858 3.46701C11.5822 3.25845 11.3697 3.12633 11.1368 3.12579C10.9039 3.12526 10.6908 3.25639 10.5863 3.46448L8.06087 8.51398L3.20308 9.00027C2.96652 9.02344 2.76453 9.18095 2.68441 9.40474C2.6043 9.62852 2.66042 9.87844 2.82853 10.0465L6.83182 14.0511L5.34884 19.4916C5.28473 19.7254 5.36409 19.9751 5.55144 20.129C5.73879 20.2829 5.99912 20.3122 6.21603 20.2039L11.136 17.7407L16.056 20.2014C16.2731 20.3092 16.5332 20.2797 16.7206 20.126C16.908 19.9724 16.9878 19.723 16.9245 19.4891L15.4402 14.0511L19.4435 10.049C19.6116 9.88098 19.6678 9.63106 19.5876 9.40728C19.5075 9.18349 19.3055 9.02598 19.069 9.00281L14.2112 8.51652ZM39.926 8.51652L37.4006 3.46701C37.2971 3.25845 37.0845 3.12633 36.8517 3.12579C36.6188 3.12526 36.4056 3.25639 36.3011 3.46448L33.7757 8.51398L28.9179 9.00027C28.6814 9.02344 28.4794 9.18095 28.3993 9.40474C28.3191 9.62852 28.3753 9.87844 28.5434 10.0465L32.5467 14.0511L31.0637 19.4916C30.9996 19.7254 31.0789 19.9751 31.2663 20.129C31.4536 20.2829 31.714 20.3122 31.9309 20.2039L36.8509 17.7407L41.7709 20.2014C41.9879 20.3092 42.248 20.2797 42.4354 20.126C42.6228 19.9724 42.7026 19.723 42.6393 19.4891L41.1551 14.0511L45.1584 10.049C45.3265 9.88098 45.3826 9.63106 45.3025 9.40728C45.2224 9.18349 45.0204 9.02598 44.7838 9.00281L39.926 8.51652ZM63.1155 3.46701L65.6409 8.51652L70.4987 9.00281C70.7352 9.02598 70.9372 9.18349 71.0173 9.40728C71.0975 9.63106 71.0413 9.88098 70.8732 10.049L66.8699 14.0511L68.3542 19.4891C68.4175 19.723 68.3377 19.9724 68.1503 20.126C67.9629 20.2797 67.7028 20.3092 67.4857 20.2014L62.5657 17.7407L57.6457 20.2039C57.4288 20.3122 57.1685 20.2829 56.9811 20.129C56.7938 19.9751 56.7144 19.7254 56.7785 19.4916L58.2615 14.0511L54.2582 10.0465C54.0901 9.87844 54.034 9.62852 54.1141 9.40474C54.1942 9.18095 54.3962 9.02344 54.6328 9.00027L59.4906 8.51398L62.0159 3.46448C62.1205 3.25639 62.3336 3.12526 62.5665 3.12579C62.7994 3.12633 63.0119 3.25845 63.1155 3.46701ZM91.3538 8.51652L88.8284 3.46701C88.7248 3.25845 88.5123 3.12633 88.2794 3.12579C88.0465 3.12526 87.8334 3.25639 87.7288 3.46448L85.2034 8.51398L80.3457 9.00027C80.1091 9.02344 79.9071 9.18095 79.827 9.40474C79.7469 9.62852 79.803 9.87844 79.9711 10.0465L83.9744 14.0511L82.4914 19.4916C82.4273 19.7254 82.5067 19.9751 82.694 20.129C82.8814 20.2829 83.1417 20.3122 83.3586 20.2039L88.2786 17.7407L93.1986 20.2014C93.4156 20.3092 93.6758 20.2797 93.8632 20.126C94.0506 19.9724 94.1304 19.723 94.0671 19.4891L92.5828 14.0511L96.5861 10.049C96.7542 9.88098 96.8103 9.63106 96.7302 9.40728C96.6501 9.18349 96.4481 9.02598 96.2116 9.00281L91.3538 8.51652ZM114.543 3.46701L117.069 8.51652L121.926 9.00281C122.163 9.02598 122.365 9.18349 122.445 9.40728C122.525 9.63106 122.469 9.88098 122.301 10.049L118.298 14.0511L119.782 19.4891C119.845 19.723 119.765 19.9724 119.578 20.126C119.391 20.2797 119.13 20.3092 118.913 20.2014L113.993 17.7407L109.073 20.2039C108.857 20.3122 108.596 20.2829 108.409 20.129C108.222 19.9751 108.142 19.7254 108.206 19.4916L109.689 14.0511L105.686 10.0465C105.518 9.87844 105.462 9.62852 105.542 9.40474C105.622 9.18095 105.824 9.02344 106.061 9.00027L110.918 8.51398L113.444 3.46448C113.548 3.25639 113.761 3.12526 113.994 3.12579C114.227 3.12633 114.44 3.25845 114.543 3.46701Z" fill="#ECF6FA"/>
<path fill-rule="evenodd" clip-rule="evenodd" d="M11.6858 3.46701L14.2112 8.51652L19.069 9.00281C19.3055 9.02598 19.5075 9.18349 19.5876 9.40728C19.6678 9.63106 19.6116 9.88098 19.4435 10.049L15.4402 14.051L16.9245 19.4891C16.9878 19.723 16.908 19.9724 16.7206 20.126C16.5332 20.2797 16.2731 20.3092 16.056 20.2014L11.136 17.7407L6.21603 20.2039C5.99912 20.3122 5.73879 20.2829 5.55144 20.129C5.36409 19.9751 5.28473 19.7254 5.34884 19.4916L6.83182 14.051L2.82853 10.0465C2.66042 9.87844 2.6043 9.62852 2.68441 9.40474C2.76453 9.18095 2.96652 9.02344 3.20308 9.00027L8.06087 8.51398L10.5863 3.46448C10.6908 3.25639 10.904 3.12526 11.1368 3.1258C11.3697 3.12633 11.5822 3.25845 11.6858 3.46701V3.46701Z" stroke="#545454" stroke-width="1.5" stroke-linecap="round" stroke-linejoin="round"/>
<path fill-rule="evenodd" clip-rule="evenodd" d="M37.4006 3.46701L39.926 8.51652L44.7838 9.00281C45.0204 9.02598 45.2224 9.18349 45.3025 9.40728C45.3826 9.63106 45.3265 9.88098 45.1584 10.049L41.1551 14.051L42.6393 19.4891C42.7026 19.723 42.6228 19.9724 42.4354 20.126C42.248 20.2797 41.9879 20.3092 41.7709 20.2014L36.8509 17.7407L31.9309 20.2039C31.714 20.3122 31.4536 20.2829 31.2663 20.129C31.0789 19.9751 30.9996 19.7254 31.0637 19.4916L32.5467 14.051L28.5434 10.0465C28.3753 9.87844 28.3191 9.62852 28.3993 9.40474C28.4794 9.18095 28.6814 9.02344 28.9179 9.00027L33.7757 8.51398L36.3011 3.46448C36.4056 3.25639 36.6188 3.12526 36.8517 3.1258C37.0845 3.12633 37.2971 3.25845 37.4006 3.46701V3.46701Z" stroke="#545454" stroke-width="1.5" stroke-linecap="round" stroke-linejoin="round"/>
<path fill-rule="evenodd" clip-rule="evenodd" d="M63.1155 3.46701L65.6409 8.51652L70.4987 9.00281C70.7352 9.02598 70.9372 9.18349 71.0173 9.40728C71.0974 9.63106 71.0413 9.88098 70.8732 10.049L66.8699 14.051L68.3542 19.4891C68.4175 19.723 68.3377 19.9724 68.1503 20.126C67.9629 20.2797 67.7028 20.3092 67.4857 20.2014L62.5657 17.7407L57.6457 20.2039C57.4288 20.3122 57.1685 20.2829 56.9811 20.129C56.7938 19.9751 56.7144 19.7254 56.7785 19.4916L58.2615 14.051L54.2582 10.0465C54.0901 9.87844 54.034 9.62852 54.1141 9.40474C54.1942 9.18095 54.3962 9.02344 54.6328 9.00027L59.4906 8.51398L62.0159 3.46448C62.1205 3.25639 62.3336 3.12526 62.5665 3.1258C62.7994 3.12633 63.0119 3.25845 63.1155 3.46701V3.46701Z" stroke="#545454" stroke-width="1.5" stroke-linecap="round" stroke-linejoin="round"/>
<path fill-rule="evenodd" clip-rule="evenodd" d="M88.8284 3.46701L91.3538 8.51652L96.2116 9.00281C96.4481 9.02598 96.6501 9.18349 96.7302 9.40728C96.8103 9.63106 96.7542 9.88098 96.5861 10.049L92.5828 14.051L94.0671 19.4891C94.1304 19.723 94.0506 19.9724 93.8632 20.126C93.6758 20.2797 93.4156 20.3092 93.1986 20.2014L88.2786 17.7407L83.3586 20.2039C83.1417 20.3122 82.8814 20.2829 82.694 20.129C82.5067 19.9751 82.4273 19.7254 82.4914 19.4916L83.9744 14.051L79.9711 10.0465C79.803 9.87844 79.7469 9.62852 79.827 9.40474C79.9071 9.18095 80.1091 9.02344 80.3457 9.00027L85.2034 8.51398L87.7288 3.46448C87.8334 3.25639 88.0465 3.12526 88.2794 3.1258C88.5123 3.12633 88.7248 3.25845 88.8284 3.46701V3.46701Z" stroke="#545454" stroke-width="1.5" stroke-linecap="round" stroke-linejoin="round"/>
<path fill-rule="evenodd" clip-rule="evenodd" d="M114.543 3.46701L117.069 8.51652L121.926 9.00281C122.163 9.02598 122.365 9.18349 122.445 9.40728C122.525 9.63106 122.469 9.88098 122.301 10.049L118.298 14.0511L119.782 19.4891C119.845 19.723 119.765 19.9724 119.578 20.126C119.391 20.2797 119.13 20.3092 118.913 20.2014L113.993 17.7407L109.073 20.2039C108.857 20.3122 108.596 20.2829 108.409 20.129C108.222 19.9751 108.142 19.7254 108.206 19.4916L109.689 14.0511L105.686 10.0465C105.518 9.87844 105.462 9.62852 105.542 9.40474C105.622 9.18095 105.824 9.02344 106.061 9.00027L110.918 8.51398L113.444 3.46448C113.548 3.25639 113.761 3.12526 113.994 3.1258C114.227 3.12633 114.44 3.25845 114.543 3.46701Z" stroke="#545454" stroke-width="1.5" stroke-linecap="round" stroke-linejoin="round"/>
</svg>
