<svg width="126" height="23" viewBox="0 0 126 23" fill="none" xmlns="http://www.w3.org/2000/svg">
<rect opacity="0.6" y="0.627441" width="118" height="22.14" fill="#82BC1E"/>
<path fill-rule="evenodd" clip-rule="evenodd" d="M125.13 0.627441H0V22.7674H125.13V0.627441ZM14.2112 8.51669L11.6858 3.46718C11.5822 3.25861 11.3697 3.1265 11.1368 3.12596C10.9039 3.12543 10.6908 3.25656 10.5863 3.46464L8.06087 8.51415L3.20308 9.00044C2.96652 9.02361 2.76453 9.18112 2.68441 9.40491C2.6043 9.62869 2.66042 9.87861 2.82853 10.0467L6.83182 14.0512L5.34884 19.4918C5.28473 19.7256 5.36409 19.9753 5.55144 20.1292C5.73879 20.283 5.99912 20.3124 6.21603 20.2041L11.136 17.7409L16.056 20.2015C16.2731 20.3094 16.5332 20.2799 16.7206 20.1262C16.908 19.9725 16.9878 19.7232 16.9245 19.4892L15.4402 14.0512L19.4435 10.0492C19.6116 9.88115 19.6678 9.63123 19.5876 9.40745C19.5075 9.18366 19.3055 9.02615 19.069 9.00298L14.2112 8.51669ZM39.926 8.51669L37.4006 3.46718C37.2971 3.25861 37.0845 3.1265 36.8517 3.12596C36.6188 3.12543 36.4056 3.25656 36.3011 3.46464L33.7757 8.51415L28.9179 9.00044C28.6814 9.02361 28.4794 9.18112 28.3993 9.40491C28.3191 9.62869 28.3753 9.87861 28.5434 10.0467L32.5467 14.0512L31.0637 19.4918C30.9996 19.7256 31.0789 19.9753 31.2663 20.1292C31.4536 20.283 31.714 20.3124 31.9309 20.2041L36.8509 17.7409L41.7709 20.2015C41.9879 20.3094 42.248 20.2799 42.4354 20.1262C42.6228 19.9725 42.7026 19.7232 42.6393 19.4892L41.1551 14.0512L45.1584 10.0492C45.3265 9.88115 45.3826 9.63123 45.3025 9.40745C45.2224 9.18366 45.0204 9.02615 44.7838 9.00298L39.926 8.51669ZM63.1155 3.46718L65.6409 8.51669L70.4987 9.00298C70.7352 9.02615 70.9372 9.18366 71.0173 9.40745C71.0975 9.63123 71.0413 9.88115 70.8732 10.0492L66.8699 14.0512L68.3542 19.4892C68.4175 19.7232 68.3377 19.9725 68.1503 20.1262C67.9629 20.2799 67.7028 20.3094 67.4857 20.2015L62.5657 17.7409L57.6457 20.2041C57.4288 20.3124 57.1685 20.283 56.9811 20.1292C56.7938 19.9753 56.7144 19.7256 56.7785 19.4918L58.2615 14.0512L54.2582 10.0467C54.0901 9.87861 54.034 9.62869 54.1141 9.40491C54.1942 9.18112 54.3962 9.02361 54.6328 9.00044L59.4906 8.51415L62.0159 3.46464C62.1205 3.25656 62.3336 3.12543 62.5665 3.12596C62.7994 3.1265 63.0119 3.25861 63.1155 3.46718ZM91.3538 8.51669L88.8284 3.46718C88.7248 3.25861 88.5123 3.1265 88.2794 3.12596C88.0465 3.12543 87.8334 3.25656 87.7288 3.46464L85.2034 8.51415L80.3457 9.00044C80.1091 9.02361 79.9071 9.18112 79.827 9.40491C79.7469 9.62869 79.803 9.87861 79.9711 10.0467L83.9744 14.0512L82.4914 19.4918C82.4273 19.7256 82.5067 19.9753 82.694 20.1292C82.8814 20.283 83.1417 20.3124 83.3586 20.2041L88.2786 17.7409L93.1986 20.2015C93.4156 20.3094 93.6758 20.2799 93.8632 20.1262C94.0506 19.9725 94.1304 19.7232 94.0671 19.4892L92.5828 14.0512L96.5861 10.0492C96.7542 9.88115 96.8103 9.63123 96.7302 9.40745C96.6501 9.18366 96.4481 9.02615 96.2116 9.00298L91.3538 8.51669ZM114.543 3.46718L117.069 8.51669L121.926 9.00298C122.163 9.02615 122.365 9.18366 122.445 9.40745C122.525 9.63123 122.469 9.88115 122.301 10.0492L118.298 14.0512L119.782 19.4892C119.845 19.7232 119.765 19.9725 119.578 20.1262C119.391 20.2799 119.13 20.3094 118.913 20.2015L113.993 17.7409L109.073 20.2041C108.857 20.3124 108.596 20.283 108.409 20.1292C108.222 19.9753 108.142 19.7256 108.206 19.4918L109.689 14.0512L105.686 10.0467C105.518 9.87861 105.462 9.62869 105.542 9.40491C105.622 9.18112 105.824 9.02361 106.061 9.00044L110.918 8.51415L113.444 3.46464C113.548 3.25656 113.761 3.12543 113.994 3.12596C114.227 3.1265 114.44 3.25861 114.543 3.46718Z" fill="#ECF6FA"/>
<path fill-rule="evenodd" clip-rule="evenodd" d="M11.6858 3.4672L14.2112 8.51671L19.069 9.00299C19.3055 9.02616 19.5075 9.18368 19.5876 9.40746C19.6678 9.63125 19.6116 9.88116 19.4435 10.0492L15.4402 14.0512L16.9245 19.4893C16.9878 19.7232 16.908 19.9725 16.7206 20.1262C16.5332 20.2799 16.2731 20.3094 16.056 20.2016L11.136 17.7409L6.21603 20.2041C5.99912 20.3124 5.73879 20.2831 5.55144 20.1292C5.36409 19.9753 5.28473 19.7256 5.34884 19.4918L6.83182 14.0512L2.82853 10.0467C2.66042 9.87863 2.6043 9.62871 2.68441 9.40492C2.76453 9.18114 2.96652 9.02362 3.20308 9.00045L8.06087 8.51417L10.5863 3.46466C10.6908 3.25657 10.904 3.12544 11.1368 3.12598C11.3697 3.12652 11.5822 3.25863 11.6858 3.4672V3.4672Z" stroke="#82BC1E" stroke-width="1.5" stroke-linecap="round" stroke-linejoin="round"/>
<path fill-rule="evenodd" clip-rule="evenodd" d="M37.4006 3.4672L39.926 8.51671L44.7838 9.00299C45.0204 9.02616 45.2224 9.18368 45.3025 9.40746C45.3826 9.63125 45.3265 9.88116 45.1584 10.0492L41.1551 14.0512L42.6393 19.4893C42.7026 19.7232 42.6228 19.9725 42.4354 20.1262C42.248 20.2799 41.9879 20.3094 41.7709 20.2016L36.8509 17.7409L31.9309 20.2041C31.714 20.3124 31.4536 20.2831 31.2663 20.1292C31.0789 19.9753 30.9996 19.7256 31.0637 19.4918L32.5467 14.0512L28.5434 10.0467C28.3753 9.87863 28.3191 9.62871 28.3993 9.40492C28.4794 9.18114 28.6814 9.02362 28.9179 9.00045L33.7757 8.51417L36.3011 3.46466C36.4056 3.25657 36.6188 3.12544 36.8517 3.12598C37.0845 3.12652 37.2971 3.25863 37.4006 3.4672V3.4672Z" stroke="#82BC1E" stroke-width="1.5" stroke-linecap="round" stroke-linejoin="round"/>
<path fill-rule="evenodd" clip-rule="evenodd" d="M63.1155 3.4672L65.6409 8.51671L70.4987 9.00299C70.7352 9.02616 70.9372 9.18368 71.0173 9.40746C71.0974 9.63125 71.0413 9.88116 70.8732 10.0492L66.8699 14.0512L68.3542 19.4893C68.4175 19.7232 68.3377 19.9725 68.1503 20.1262C67.9629 20.2799 67.7028 20.3094 67.4857 20.2016L62.5657 17.7409L57.6457 20.2041C57.4288 20.3124 57.1685 20.2831 56.9811 20.1292C56.7938 19.9753 56.7144 19.7256 56.7785 19.4918L58.2615 14.0512L54.2582 10.0467C54.0901 9.87863 54.034 9.62871 54.1141 9.40492C54.1942 9.18114 54.3962 9.02362 54.6328 9.00045L59.4906 8.51417L62.0159 3.46466C62.1205 3.25657 62.3336 3.12544 62.5665 3.12598C62.7994 3.12652 63.0119 3.25863 63.1155 3.4672V3.4672Z" stroke="#82BC1E" stroke-width="1.5" stroke-linecap="round" stroke-linejoin="round"/>
<path fill-rule="evenodd" clip-rule="evenodd" d="M88.8284 3.4672L91.3538 8.51671L96.2116 9.00299C96.4481 9.02616 96.6501 9.18368 96.7302 9.40746C96.8103 9.63125 96.7542 9.88116 96.5861 10.0492L92.5828 14.0512L94.0671 19.4893C94.1304 19.7232 94.0506 19.9725 93.8632 20.1262C93.6758 20.2799 93.4156 20.3094 93.1986 20.2016L88.2786 17.7409L83.3586 20.2041C83.1417 20.3124 82.8814 20.2831 82.694 20.1292C82.5067 19.9753 82.4273 19.7256 82.4914 19.4918L83.9744 14.0512L79.9711 10.0467C79.803 9.87863 79.7469 9.62871 79.827 9.40492C79.9071 9.18114 80.1091 9.02362 80.3457 9.00045L85.2034 8.51417L87.7288 3.46466C87.8334 3.25657 88.0465 3.12544 88.2794 3.12598C88.5123 3.12652 88.7248 3.25863 88.8284 3.4672V3.4672Z" stroke="#82BC1E" stroke-width="1.5" stroke-linecap="round" stroke-linejoin="round"/>
<path fill-rule="evenodd" clip-rule="evenodd" d="M114.543 3.4672L117.069 8.51671L121.926 9.00299C122.163 9.02616 122.365 9.18368 122.445 9.40746C122.525 9.63125 122.469 9.88117 122.301 10.0492L118.298 14.0512L119.782 19.4893C119.845 19.7232 119.765 19.9725 119.578 20.1262C119.391 20.2799 119.13 20.3094 118.913 20.2016L113.993 17.7409L109.073 20.2041C108.857 20.3124 108.596 20.2831 108.409 20.1292C108.222 19.9753 108.142 19.7256 108.206 19.4918L109.689 14.0512L105.686 10.0467C105.518 9.87863 105.462 9.62871 105.542 9.40492C105.622 9.18114 105.824 9.02362 106.061 9.00045L110.918 8.51417L113.444 3.46466C113.548 3.25657 113.761 3.12544 113.994 3.12598C114.227 3.12652 114.44 3.25863 114.543 3.4672Z" stroke="#82BC1E" stroke-width="1.5" stroke-linecap="round" stroke-linejoin="round"/>
</svg>
