<svg width="122" height="19" viewBox="0 0 122 19" fill="none" xmlns="http://www.w3.org/2000/svg">
<path fill-rule="evenodd" clip-rule="evenodd" d="M10.0374 1.34122L12.5628 6.39073L17.4205 6.87702C17.6571 6.90018 17.8591 7.0577 17.9392 7.28148C18.0193 7.50527 17.9632 7.75519 17.7951 7.92323L13.7918 11.9253L15.2761 17.3633C15.3394 17.5972 15.2595 17.8466 15.0721 18.0003C14.8848 18.1539 14.6246 18.1834 14.4076 18.0756L9.48759 15.6149L4.56759 18.0781C4.35068 18.1864 4.09036 18.1571 3.903 18.0032C3.71565 17.8493 3.63629 17.5996 3.7004 17.3658L5.18338 11.9253L1.18009 7.92069C1.01198 7.75265 0.95586 7.50273 1.03598 7.27894C1.11609 7.05516 1.31808 6.89765 1.55464 6.87448L6.41243 6.38819L8.93782 1.33868C9.04235 1.13059 9.25551 0.999464 9.48838 1C9.72124 1.00054 9.9338 1.13265 10.0374 1.34122V1.34122Z" fill="#B4D778" stroke="#82BC1E" stroke-width="1.5" stroke-linecap="round" stroke-linejoin="round"/>
<path fill-rule="evenodd" clip-rule="evenodd" d="M35.7522 1.34122L38.2776 6.39073L43.1354 6.87702C43.3719 6.90018 43.5739 7.0577 43.6541 7.28148C43.7342 7.50527 43.678 7.75519 43.5099 7.92323L39.5066 11.9253L40.9909 17.3633C41.0542 17.5972 40.9744 17.8466 40.787 18.0003C40.5996 18.1539 40.3395 18.1834 40.1224 18.0756L35.2024 15.6149L30.2824 18.0781C30.0655 18.1864 29.8052 18.1571 29.6178 18.0032C29.4305 17.8493 29.3511 17.5996 29.4152 17.3658L30.8982 11.9253L26.8949 7.92069C26.7268 7.75265 26.6707 7.50273 26.7508 7.27894C26.8309 7.05516 27.0329 6.89765 27.2695 6.87448L32.1273 6.38819L34.6527 1.33868C34.7572 1.13059 34.9704 0.999464 35.2032 1C35.4361 1.00054 35.6486 1.13265 35.7522 1.34122V1.34122Z" fill="#B4D778" stroke="#82BC1E" stroke-width="1.5" stroke-linecap="round" stroke-linejoin="round"/>
<path fill-rule="evenodd" clip-rule="evenodd" d="M61.4671 1.34122L63.9924 6.39073L68.8502 6.87702C69.0868 6.90018 69.2888 7.0577 69.3689 7.28148C69.449 7.50527 69.3929 7.75519 69.2248 7.92323L65.2215 11.9253L66.7057 17.3633C66.769 17.5972 66.6892 17.8466 66.5018 18.0003C66.3144 18.1539 66.0543 18.1834 65.8373 18.0756L60.9173 15.6149L55.9973 18.0781C55.7804 18.1864 55.52 18.1571 55.3327 18.0032C55.1453 17.8493 55.066 17.5996 55.1301 17.3658L56.6131 11.9253L52.6098 7.92069C52.4417 7.75265 52.3855 7.50273 52.4657 7.27894C52.5458 7.05516 52.7478 6.89765 52.9843 6.87448L57.8421 6.38819L60.3675 1.33868C60.472 1.13059 60.6852 0.999464 60.9181 1C61.1509 1.00054 61.3635 1.13265 61.4671 1.34122V1.34122Z" fill="#B4D778" stroke="#82BC1E" stroke-width="1.5" stroke-linecap="round" stroke-linejoin="round"/>
<path fill-rule="evenodd" clip-rule="evenodd" d="M87.1799 1.34122L89.7053 6.39073L94.5631 6.87702C94.7997 6.90018 95.0017 7.0577 95.0818 7.28148C95.1619 7.50527 95.1058 7.75519 94.9377 7.92323L90.9344 11.9253L92.4186 17.3633C92.4819 17.5972 92.4021 17.8466 92.2147 18.0003C92.0273 18.1539 91.7672 18.1834 91.5502 18.0756L86.6302 15.6149L81.7102 18.0781C81.4933 18.1864 81.2329 18.1571 81.0456 18.0032C80.8582 17.8493 80.7789 17.5996 80.843 17.3658L82.326 11.9253L78.3227 7.92069C78.1546 7.75265 78.0984 7.50273 78.1786 7.27894C78.2587 7.05516 78.4607 6.89765 78.6972 6.87448L83.555 6.38819L86.0804 1.33868C86.1849 1.13059 86.3981 0.999464 86.631 1C86.8638 1.00054 87.0764 1.13265 87.1799 1.34122V1.34122Z" fill="#B4D778" stroke="#82BC1E" stroke-width="1.5" stroke-linecap="round" stroke-linejoin="round"/>
<path fill-rule="evenodd" clip-rule="evenodd" d="M112.895 1.34122L115.42 6.39073L116 6.5C116.5 6.5 116.5 6 116.5 7.5C116.5 8.5 116.5 7.89073 116.5 10.5V12V17C116.563 17.2339 118.117 17.8466 117.93 18.0003C117.742 18.1539 117.482 18.1834 117.265 18.0756L112.345 15.6149L107.425 18.0781C107.208 18.1864 106.948 18.1571 106.76 18.0032C106.573 17.8493 106.494 17.5996 106.558 17.3658L108.041 11.9253L104.038 7.92069C103.869 7.75265 103.813 7.50273 103.893 7.27894C103.974 7.05516 104.176 6.89765 104.412 6.87448L109.27 6.38819L111.795 1.33868C111.9 1.13059 112.113 0.999464 112.346 1C112.579 1.00054 112.791 1.13265 112.895 1.34122Z" fill="#B4D778"/>
<path fill-rule="evenodd" clip-rule="evenodd" d="M112.895 1.34122L115.42 6.39073L120.278 6.87702C120.515 6.90018 120.717 7.0577 120.797 7.28148C120.877 7.50527 120.821 7.75519 120.653 7.92323L116.649 11.9253L118.133 17.3633C118.197 17.5972 118.117 17.8466 117.93 18.0003C117.742 18.1539 117.482 18.1834 117.265 18.0756L112.345 15.6149L107.425 18.0781C107.208 18.1864 106.948 18.1571 106.76 18.0032C106.573 17.8493 106.494 17.5996 106.558 17.3658L108.041 11.9253L104.038 7.92069C103.869 7.75265 103.813 7.50273 103.893 7.27894C103.974 7.05516 104.176 6.89765 104.412 6.87448L109.27 6.38819L111.795 1.33868C111.9 1.13059 112.113 0.999464 112.346 1C112.579 1.00054 112.791 1.13265 112.895 1.34122Z" stroke="#82BC1E" stroke-width="1.5" stroke-linecap="round" stroke-linejoin="round"/>
</svg>
