<svg width="123" height="20" viewBox="0 0 123 20" fill="none" xmlns="http://www.w3.org/2000/svg">
<path fill-rule="evenodd" clip-rule="evenodd" d="M10.6858 1.46622L13.2112 6.51573L18.069 7.00202C18.3055 7.02518 18.5075 7.1827 18.5876 7.40648C18.6678 7.63027 18.6116 7.88019 18.4435 8.04823L14.4402 12.0503L15.9245 17.4883C15.9878 17.7222 15.908 17.9716 15.7206 18.1253C15.5332 18.2789 15.2731 18.3084 15.056 18.2006L10.136 15.7399L5.21603 18.2031C4.99912 18.3114 4.73879 18.2821 4.55144 18.1282C4.36409 17.9743 4.28473 17.7246 4.34884 17.4908L5.83182 12.0503L1.82853 8.04569C1.66042 7.87765 1.6043 7.62773 1.68441 7.40394C1.76453 7.18016 1.96652 7.02265 2.20308 6.99948L7.06087 6.51319L9.58626 1.46368C9.69079 1.25559 9.90395 1.12446 10.1368 1.125C10.3697 1.12554 10.5822 1.25765 10.6858 1.46622Z" fill="#82BC1E" stroke="#82BC1E" stroke-width="1.5" stroke-linecap="round" stroke-linejoin="round"/>
<path fill-rule="evenodd" clip-rule="evenodd" d="M36.3997 1.46622L38.9251 6.51573L43.7828 7.00202C44.0194 7.02518 44.2214 7.1827 44.3015 7.40648C44.3816 7.63027 44.3255 7.88019 44.1574 8.04823L40.1541 12.0503L41.6384 17.4883C41.7017 17.7222 41.6218 17.9716 41.4345 18.1253C41.2471 18.2789 40.9869 18.3084 40.7699 18.2006L35.8499 15.7399L30.9299 18.2031C30.713 18.3114 30.4527 18.2821 30.2653 18.1282C30.078 17.9743 29.9986 17.7246 30.0627 17.4908L31.5457 12.0503L27.5424 8.04569C27.3743 7.87765 27.3182 7.62773 27.3983 7.40394C27.4784 7.18016 27.6804 7.02265 27.9169 6.99948L32.7747 6.51319L35.3001 1.46368C35.4047 1.25559 35.6178 1.12446 35.8507 1.125C36.0835 1.12554 36.2961 1.25765 36.3997 1.46622Z" fill="#82BC1E" stroke="#82BC1E" stroke-width="1.5" stroke-linecap="round" stroke-linejoin="round"/>
<path fill-rule="evenodd" clip-rule="evenodd" d="M62.1145 1.46622L64.6399 6.51573L69.4977 7.00202C69.7342 7.02518 69.9362 7.1827 70.0164 7.40648C70.0965 7.63027 70.0403 7.88019 69.8722 8.04823L65.8689 12.0503L67.3532 17.4883C67.4165 17.7222 67.3367 17.9716 67.1493 18.1253C66.9619 18.2789 66.7018 18.3084 66.4847 18.2006L61.5647 15.7399L56.6447 18.2031C56.4278 18.3114 56.1675 18.2821 55.9802 18.1282C55.7928 17.9743 55.7134 17.7246 55.7775 17.4908L57.2605 12.0503L53.2572 8.04569C53.0891 7.87765 53.033 7.62773 53.1131 7.40394C53.1932 7.18016 53.3952 7.02265 53.6318 6.99948L58.4896 6.51319L61.015 1.46368C61.1195 1.25559 61.3327 1.12446 61.5655 1.125C61.7984 1.12554 62.0109 1.25765 62.1145 1.46622Z" fill="#82BC1E" stroke="#82BC1E" stroke-width="1.5" stroke-linecap="round" stroke-linejoin="round"/>
<path fill-rule="evenodd" clip-rule="evenodd" d="M87.8284 1.46622L90.3538 6.51573L95.2116 7.00202C95.4481 7.02518 95.6501 7.1827 95.7302 7.40648C95.8103 7.63027 95.7542 7.88019 95.5861 8.04823L91.5828 12.0503L93.0671 17.4883C93.1304 17.7222 93.0506 17.9716 92.8632 18.1253C92.6758 18.2789 92.4156 18.3084 92.1986 18.2006L87.2786 15.7399L82.3586 18.2031C82.1417 18.3114 81.8814 18.2821 81.694 18.1282C81.5067 17.9743 81.4273 17.7246 81.4914 17.4908L82.9744 12.0503L78.9711 8.04569C78.803 7.87765 78.7469 7.62773 78.827 7.40394C78.9071 7.18016 79.1091 7.02265 79.3457 6.99948L84.2034 6.51319L86.7288 1.46368C86.8334 1.25559 87.0465 1.12446 87.2794 1.125C87.5123 1.12554 87.7248 1.25765 87.8284 1.46622Z" fill="#82BC1E" stroke="#82BC1E" stroke-width="1.5" stroke-linecap="round" stroke-linejoin="round"/>
<path fill-rule="evenodd" clip-rule="evenodd" d="M113.542 1.46622L116.068 6.51573L120.925 7.00202C121.162 7.02518 121.364 7.1827 121.444 7.40648C121.524 7.63027 121.468 7.88019 121.3 8.04823L117.297 12.0503L118.781 17.4883C118.844 17.7222 118.764 17.9716 118.577 18.1253C118.39 18.2789 118.13 18.3084 117.912 18.2006L112.992 15.7399L108.072 18.2031C107.856 18.3114 107.595 18.2821 107.408 18.1282C107.221 17.9743 107.141 17.7246 107.205 17.4908L108.688 12.0503L104.685 8.04569C104.517 7.87765 104.461 7.62773 104.541 7.40394C104.621 7.18016 104.823 7.02265 105.06 6.99948L109.917 6.51319L112.443 1.46368C112.547 1.25559 112.76 1.12446 112.993 1.125C113.226 1.12554 113.439 1.25765 113.542 1.46622Z" fill="#82BC1E" stroke="#82BC1E" stroke-width="1.5" stroke-linecap="round" stroke-linejoin="round"/>
</svg>
