<svg width="1679" height="1069" viewBox="0 0 1679 1069" fill="none" xmlns="http://www.w3.org/2000/svg">
<mask id="mask0_1076_662" style="mask-type:alpha" maskUnits="userSpaceOnUse" x="0" y="0" width="1679" height="1069">
<rect x="0.396484" y="0.525391" width="1678.6" height="1068.33" fill="#C4C4C4"/>
</mask>
<g mask="url(#mask0_1076_662)">
<rect x="0.396484" y="18.8564" width="1684" height="1050" fill="#ECF6FA"/>
<rect x="0.396484" y="576.856" width="1684" height="492" fill="#ECF6FA"/>
<rect x="0.396484" y="576.856" width="1684" height="492" fill="url(#paint0_linear_1076_662)"/>
<rect x="735.732" y="815.856" width="217.327" height="253" fill="white" fill-opacity="0.4"/>
<rect x="735.732" y="815.856" width="217.327" height="253" fill="white" fill-opacity="0.4"/>
<rect x="735.732" y="815.856" width="217.327" height="253" fill="white" fill-opacity="0.4"/>
<rect x="184.396" y="815.856" width="100" height="100" fill="white" fill-opacity="0.4"/>
<rect x="184.396" y="815.856" width="100" height="100" fill="white" fill-opacity="0.4"/>
<rect x="184.396" y="815.856" width="100" height="100" fill="white" fill-opacity="0.4"/>
<rect x="294.396" y="815.856" width="100" height="100" fill="white" fill-opacity="0.4"/>
<rect x="294.396" y="815.856" width="100" height="100" fill="white" fill-opacity="0.4"/>
<rect x="294.396" y="815.856" width="100" height="100" fill="white" fill-opacity="0.4"/>
<rect x="184.396" y="925.856" width="100" height="100" fill="white" fill-opacity="0.4"/>
<rect x="184.396" y="925.856" width="100" height="100" fill="white" fill-opacity="0.4"/>
<rect x="184.396" y="925.856" width="100" height="100" fill="white" fill-opacity="0.4"/>
<rect x="294.396" y="925.856" width="100" height="100" fill="white" fill-opacity="0.4"/>
<rect x="294.396" y="925.856" width="100" height="100" fill="white" fill-opacity="0.4"/>
<rect x="294.396" y="925.856" width="100" height="100" fill="white" fill-opacity="0.4"/>
<rect x="1293.4" y="815.856" width="100" height="100" fill="white" fill-opacity="0.4"/>
<rect x="1293.4" y="815.856" width="100" height="100" fill="white" fill-opacity="0.4"/>
<rect x="1293.4" y="815.856" width="100" height="100" fill="white" fill-opacity="0.4"/>
<rect x="1403.4" y="815.856" width="100" height="100" fill="white" fill-opacity="0.4"/>
<rect x="1403.4" y="815.856" width="100" height="100" fill="white" fill-opacity="0.4"/>
<rect x="1403.4" y="815.856" width="100" height="100" fill="white" fill-opacity="0.4"/>
<rect x="1293.4" y="925.856" width="100" height="100" fill="white" fill-opacity="0.4"/>
<rect x="1293.4" y="925.856" width="100" height="100" fill="white" fill-opacity="0.4"/>
<rect x="1293.4" y="925.856" width="100" height="100" fill="white" fill-opacity="0.4"/>
<rect x="1403.4" y="925.856" width="100" height="100" fill="white" fill-opacity="0.4"/>
<rect x="1403.4" y="925.856" width="100" height="100" fill="white" fill-opacity="0.4"/>
<rect x="1403.4" y="925.856" width="100" height="100" fill="white" fill-opacity="0.4"/>
<path d="M1155.84 248.078C605.569 224.341 384.082 348.958 154.342 319.287C-29.45 295.551 -40.5474 261.924 -23.122 248.078V59.6681L58.0438 0.32666H1660.72L1711.16 383.965C1711.41 385.19 1711.57 386.379 1711.62 387.53L1711.16 383.965C1702.71 344.128 1582.93 266.5 1155.84 248.078Z" fill="#ECF6FA"/>
<path d="M1155.84 248.078C605.569 224.341 384.082 348.958 154.342 319.287C-29.45 295.551 -40.5474 261.924 -23.122 248.078V59.6681L58.0438 0.32666H1660.72L1711.16 383.965C1711.41 385.19 1711.57 386.379 1711.62 387.53L1711.16 383.965C1702.71 344.128 1582.93 266.5 1155.84 248.078Z" fill="url(#paint1_linear_1076_662)"/>
<path d="M-177.527 134.356C-101.409 166.314 104.865 227.092 321.017 214.542C532.811 202.244 599.003 194.521 606.506 192.028C606.636 191.979 606.766 191.93 606.896 191.881C606.79 191.928 606.661 191.977 606.506 192.028C503.282 231.026 198.846 316.031 -196.702 345.279C-592.748 374.564 -348.938 216.866 -177.527 134.356Z" fill="white" fill-opacity="0.6"/>
<path d="M1413.55 223.104C1359.49 212.876 1296.66 119.363 1144.7 142.741C1025.47 162.613 1108.66 3.93246 1165.15 -77.8916L1835.82 -47.2076L1904.49 239.177L1758.38 319.54C1755.94 284.472 1725.65 206.74 1623.95 176.348C1496.83 138.358 1467.61 233.332 1413.55 223.104Z" fill="#ECF6FA"/>
<mask id="mask1_1076_662" style="mask-type:alpha" maskUnits="userSpaceOnUse" x="-59" y="118" width="1802" height="462">
<path d="M846.711 118.856L-58.3125 578.856H1742.11L846.711 118.856Z" fill="#C4C4C4" stroke="black"/>
</mask>
<g mask="url(#mask1_1076_662)">
<rect x="1739.97" y="670.621" width="1797.21" height="934.741" transform="rotate(-180 1739.97 670.621)" fill="white" fill-opacity="0.4"/>
</g>
<mask id="mask2_1076_662" style="mask-type:alpha" maskUnits="userSpaceOnUse" x="0" y="148" width="1684" height="432">
<path d="M846.396 148.856L0.396484 578.856H1683.4L846.396 148.856Z" fill="#C4C4C4" stroke="black"/>
</mask>
<g mask="url(#mask2_1076_662)">
<rect x="1681.4" y="664.636" width="1680" height="873.78" transform="rotate(-180 1681.4 664.636)" fill="#ECF6FA"/>
</g>
<path d="M-533.227 819.137L844.697 118.856L2280.15 848.373" stroke="#ECF6FA" stroke-width="2"/>
</g>
<defs>
<linearGradient id="paint0_linear_1076_662" x1="842.396" y1="576.856" x2="842.396" y2="1068.86" gradientUnits="userSpaceOnUse">
<stop offset="0.411458" stop-color="white" stop-opacity="0"/>
<stop offset="1" stop-color="white"/>
</linearGradient>
<linearGradient id="paint1_linear_1076_662" x1="841.311" y1="0.32666" x2="841.311" y2="387.53" gradientUnits="userSpaceOnUse">
<stop stop-color="white"/>
<stop offset="1" stop-color="white" stop-opacity="0"/>
</linearGradient>
</defs>
</svg>
