<svg width="1680" height="658" viewBox="0 0 1680 658" fill="none" xmlns="http://www.w3.org/2000/svg">
<mask id="mask0_1222_662" style="mask-type:alpha" maskUnits="userSpaceOnUse" x="0" y="0" width="1680" height="658">
<rect width="1680" height="658" fill="#C4C4C4"/>
</mask>
<g mask="url(#mask0_1222_662)">
<path d="M1909.53 879.028L531.608 178.747L-903.843 908.264" stroke="#ECF6FA" stroke-width="2"/>
<mask id="mask1_1222_662" style="mask-type:alpha" maskUnits="userSpaceOnUse" x="-308" y="202" width="1685" height="432">
<path d="M529.908 202.995L1375.91 632.995L-307.092 629.995L529.908 202.995Z" fill="#C4C4C4" stroke="black"/>
</mask>
<g mask="url(#mask1_1222_662)">
<rect width="1680" height="873.78" transform="matrix(1 -8.74228e-08 -8.74228e-08 -1 -305.092 718.774)" fill="#ECF6FA"/>
<rect width="1680" height="873.78" transform="matrix(1 -8.74228e-08 -8.74228e-08 -1 -305.092 718.774)" fill="url(#paint0_linear_1222_662)"/>
</g>
<rect width="3098" height="676" transform="matrix(-1 0 0 1 2315.91 178.747)" fill="url(#paint1_linear_1222_662)"/>
<path d="M2861.53 703.528L1483.61 3.24729L48.1575 732.764" stroke="#ECF6FA" stroke-width="2"/>
<rect width="1680" height="729.516" transform="matrix(-1 0 0 1 1677.69 3.24731)" fill="url(#paint2_linear_1222_662)"/>
<mask id="mask2_1222_662" style="mask-type:alpha" maskUnits="userSpaceOnUse" x="644" y="28" width="1685" height="455">
<path d="M1481.91 28.7982L2327.91 481.916L644.908 478.754L1481.91 28.7982Z" fill="#C4C4C4" stroke="black"/>
</mask>
<g mask="url(#mask2_1222_662)">
<rect width="1680" height="920.755" transform="matrix(1 -9.21227e-08 -8.29626e-08 -1 646.908 572.307)" fill="#ECF6FA"/>
<rect width="1680" height="920.755" transform="matrix(1 -9.21227e-08 -8.29626e-08 -1 646.908 572.307)" fill="url(#paint3_linear_1222_662)"/>
</g>
<g style="mix-blend-mode:multiply">
<rect y="279.5" width="1680" height="378.5" fill="#ECF6FA"/>
<rect y="279.5" width="1680" height="378.5" fill="url(#paint4_linear_1222_662)"/>
</g>
<rect x="1377.75" y="536.747" width="217.327" height="121.253" fill="white" fill-opacity="0.3"/>
<rect x="1377.75" y="536.747" width="217.327" height="121.253" fill="white" fill-opacity="0.3"/>
<rect x="1377.75" y="536.747" width="217.327" height="121.253" fill="white" fill-opacity="0.3"/>
<rect x="1075.56" y="536.747" width="100" height="100" fill="white" fill-opacity="0.3"/>
<rect x="1075.56" y="536.747" width="100" height="100" fill="white" fill-opacity="0.3"/>
<rect x="1075.56" y="536.747" width="100" height="100" fill="white" fill-opacity="0.3"/>
<rect x="1185.56" y="536.747" width="100" height="100" fill="white" fill-opacity="0.3"/>
<rect x="1185.56" y="536.747" width="100" height="100" fill="white" fill-opacity="0.3"/>
<rect x="1185.56" y="536.747" width="100" height="100" fill="white" fill-opacity="0.3"/>
<rect x="1075.56" y="646.747" width="100" height="11.2527" fill="white" fill-opacity="0.3"/>
<rect x="1075.56" y="646.747" width="100" height="11.2527" fill="white" fill-opacity="0.3"/>
<rect x="1075.56" y="646.747" width="100" height="11.2527" fill="white" fill-opacity="0.3"/>
<rect x="1185.56" y="646.747" width="100" height="11.2527" fill="white" fill-opacity="0.3"/>
<rect x="1185.56" y="646.747" width="100" height="11.2527" fill="white" fill-opacity="0.3"/>
<rect x="1185.56" y="646.747" width="100" height="11.2527" fill="white" fill-opacity="0.3"/>
<rect x="429.41" y="536.747" width="100" height="100" fill="white" fill-opacity="0.3"/>
<rect x="429.41" y="536.747" width="100" height="100" fill="white" fill-opacity="0.3"/>
<rect x="429.41" y="536.747" width="100" height="100" fill="white" fill-opacity="0.3"/>
<rect x="539.41" y="536.747" width="100" height="100" fill="white" fill-opacity="0.3"/>
<rect x="539.41" y="536.747" width="100" height="100" fill="white" fill-opacity="0.3"/>
<rect x="539.41" y="536.747" width="100" height="100" fill="white" fill-opacity="0.3"/>
<rect x="429.41" y="646.747" width="100" height="11.2527" fill="white" fill-opacity="0.3"/>
<rect x="429.41" y="646.747" width="100" height="11.2527" fill="white" fill-opacity="0.3"/>
<rect x="429.41" y="646.747" width="100" height="11.2527" fill="white" fill-opacity="0.3"/>
<rect x="539.41" y="646.747" width="100" height="11.2527" fill="white" fill-opacity="0.3"/>
<rect x="539.41" y="646.747" width="100" height="11.2527" fill="white" fill-opacity="0.3"/>
<rect x="539.41" y="646.747" width="100" height="11.2527" fill="white" fill-opacity="0.3"/>
</g>
<defs>
<linearGradient id="paint0_linear_1222_662" x1="840" y1="0" x2="840" y2="873.78" gradientUnits="userSpaceOnUse">
<stop stop-color="white"/>
<stop offset="1" stop-color="white" stop-opacity="0"/>
</linearGradient>
<linearGradient id="paint1_linear_1222_662" x1="1549" y1="0" x2="1549" y2="676" gradientUnits="userSpaceOnUse">
<stop stop-color="white" stop-opacity="0"/>
<stop offset="1" stop-color="white"/>
</linearGradient>
<linearGradient id="paint2_linear_1222_662" x1="840" y1="0" x2="840" y2="729.516" gradientUnits="userSpaceOnUse">
<stop stop-color="white" stop-opacity="0"/>
<stop offset="1" stop-color="white"/>
</linearGradient>
<linearGradient id="paint3_linear_1222_662" x1="840" y1="0" x2="840" y2="920.755" gradientUnits="userSpaceOnUse">
<stop stop-color="white"/>
<stop offset="1" stop-color="white" stop-opacity="0"/>
</linearGradient>
<linearGradient id="paint4_linear_1222_662" x1="840" y1="279.5" x2="840" y2="658" gradientUnits="userSpaceOnUse">
<stop stop-color="white"/>
<stop offset="1" stop-color="white" stop-opacity="0"/>
</linearGradient>
</defs>
</svg>
