<svg width="31" height="31" viewBox="0 0 31 31" fill="none" xmlns="http://www.w3.org/2000/svg">
<path fill-rule="evenodd" clip-rule="evenodd" d="M25.6797 11.2153C25.6797 16.4916 22.0134 19.5266 19.2659 22.4653C17.6209 24.2253 16.3047 29.9653 16.3047 29.9653C16.3047 29.9653 14.9922 24.2291 13.3509 22.4741C10.6009 19.5366 6.92969 16.4966 6.92969 11.2153C6.92969 6.03766 11.127 1.84033 16.3047 1.84033C21.4824 1.84033 25.6797 6.03766 25.6797 11.2153Z" stroke="#82BC1E" stroke-width="1.5" stroke-linecap="round" stroke-linejoin="round"/>
<path fill-rule="evenodd" clip-rule="evenodd" d="M16.3047 14.9653C18.3758 14.9653 20.0547 13.2864 20.0547 11.2153C20.0547 9.14426 18.3758 7.46533 16.3047 7.46533C14.2336 7.46533 12.5547 9.14426 12.5547 11.2153C12.5547 13.2864 14.2336 14.9653 16.3047 14.9653Z" stroke="#82BC1E" stroke-width="1.5" stroke-linecap="round" stroke-linejoin="round"/>
</svg>
