<svg width="34" height="31" viewBox="0 0 34 31" fill="none" xmlns="http://www.w3.org/2000/svg">
<path d="M8.7468 17.803L12.8268 0.52298H7.0668L2.0268 17.083C0.826797 20.563 0.466797 22.003 0.466797 23.923C0.466797 27.523 2.9868 30.403 6.8268 30.403C10.3068 30.403 13.0668 27.763 13.0668 23.923C13.0668 20.923 11.3868 18.643 8.7468 17.803ZM29.1468 17.803L33.2268 0.52298H27.4668L22.4268 17.083C21.2268 20.563 20.8668 22.003 20.8668 23.923C20.8668 27.523 23.3868 30.403 27.2268 30.403C30.7068 30.403 33.4668 27.763 33.4668 23.923C33.4668 20.923 31.7868 18.643 29.1468 17.803Z" fill="#82BC1E"/>
</svg>
