<svg width="1680" height="264" viewBox="0 0 1680 264" fill="none" xmlns="http://www.w3.org/2000/svg">
<path d="M1307.59 167.197C1253.52 156.969 1190.69 63.4559 1038.74 86.8341C919.506 106.706 1002.69 -51.9748 1059.19 -133.799L1729.86 -103.115L1798.53 183.27L1652.42 263.633C1649.98 228.565 1619.69 150.832 1517.99 120.44C1390.87 82.4507 1361.65 177.425 1307.59 167.197Z" fill="white" fill-opacity="0.5"/>
<path d="M-280.836 11.668C-204.718 43.6259 1.55627 104.404 217.708 91.8533C429.502 79.5557 495.695 71.8324 503.198 69.3395C503.328 69.2904 503.458 69.2413 503.587 69.1923C503.482 69.2391 503.352 69.2882 503.198 69.3395C399.973 108.337 95.5374 193.342 -300.01 222.59C-696.057 251.876 -452.246 94.1776 -280.836 11.668Z" fill="white" fill-opacity="0.5"/>
</svg>
