<svg width="139" height="32" viewBox="0 0 139 32" fill="none" xmlns="http://www.w3.org/2000/svg">
<g clip-path="url(#clip0_438_7832)">
<path d="M18.2188 30.9033V21.3643H11.8672V30.9033H-0.00195312V24.8972L15.0547 9.89722L30.084 24.8972V30.9033H18.2188ZM19.5566 5.42627L15.0566 0.92627H30.0918V15.9263L19.5566 5.42627ZM-0.00195312 0.92627H15.0547L10.5547 5.42627L-0.00195312 15.9263V0.92627Z" fill="#1289AE"/>
<path d="M104.389 30.7909C103.631 30.6072 102.909 30.299 102.252 29.8789L103.336 27.4789C103.888 27.8476 104.495 28.1261 105.135 28.304C105.779 28.5051 106.45 28.6105 107.125 28.617C108.377 28.617 109.003 28.3039 109.004 27.6779C108.998 27.5148 108.944 27.3573 108.848 27.2256C108.751 27.0939 108.617 26.994 108.463 26.9389C107.914 26.7058 107.341 26.5339 106.754 26.4259C106.016 26.2931 105.291 26.0923 104.59 25.826C104.004 25.627 103.484 25.2727 103.084 24.8009C102.639 24.271 102.414 23.5915 102.453 22.9009C102.449 22.2214 102.649 21.5563 103.025 20.9909C103.453 20.3871 104.047 19.922 104.736 19.653C105.625 19.31 106.573 19.1468 107.525 19.1729C108.272 19.1721 109.015 19.2573 109.742 19.4269C110.423 19.57 111.076 19.8194 111.68 20.1659L110.686 22.5879C109.712 22.0298 108.616 21.7255 107.494 21.7029C107.004 21.6604 106.512 21.7597 106.076 21.9889C105.937 22.0547 105.818 22.1594 105.736 22.2906C105.655 22.4217 105.614 22.5736 105.617 22.7279C105.619 22.8817 105.668 23.031 105.76 23.1542C105.852 23.2774 105.982 23.368 106.129 23.4129C106.672 23.6329 107.236 23.7958 107.812 23.8989C108.548 24.0317 109.271 24.2302 109.971 24.492C110.553 24.74 111.092 25.0774 111.57 25.492C112.011 26.0278 112.234 26.7094 112.195 27.4019C112.194 28.0694 111.997 28.7219 111.629 29.279C111.185 29.8767 110.584 30.3398 109.893 30.617C109.006 30.9787 108.055 31.153 107.098 31.1289C106.184 31.1301 105.274 31.0166 104.389 30.7909V30.7909ZM54.8574 30.3589C53.9143 29.8752 53.1252 29.137 52.5801 28.2279C52.0247 27.2995 51.7391 26.2347 51.7559 25.153C51.7427 24.0717 52.028 23.0077 52.5801 22.0779C53.1235 21.1662 53.9129 20.426 54.8574 19.9419C55.8775 19.4186 57.0119 19.1554 58.1582 19.1759C59.1518 19.1535 60.1377 19.3374 61.0566 19.716C61.8841 20.0589 62.6167 20.5956 63.1934 21.2809L61.1191 23.1579C60.7752 22.7548 60.3469 22.4316 59.8652 22.2107C59.3836 21.9898 58.86 21.8766 58.3301 21.8789C57.9008 21.853 57.4709 21.9179 57.0684 22.0694C56.6658 22.2208 56.2998 22.4555 55.9941 22.758C55.6868 23.0749 55.4459 23.4511 55.2891 23.8638C55.1322 24.2765 55.0627 24.7168 55.082 25.1579C55.0591 25.7503 55.1958 26.3379 55.4805 26.8579C55.7358 27.3524 56.1339 27.76 56.6211 28.029C57.1329 28.3169 57.7117 28.4639 58.2988 28.455C58.9092 28.4649 59.5136 28.3377 60.0684 28.0829V24.9269H62.9395V29.68C62.2425 30.1582 61.4736 30.5224 60.6621 30.7589C59.8313 31.0094 58.9673 31.1347 58.0996 31.1309C56.9715 31.1462 55.858 30.8813 54.8574 30.3599V30.3589ZM94.1973 30.904V21.992H90.6699V19.403H100.947V21.992H97.4473V30.904H94.1973ZM85.9434 30.904L80.877 24.7809V30.904H77.6895V19.404H80.3672L85.4297 25.5219V19.404H88.6191V30.904H85.9434ZM65.8145 30.904V19.404H74.8398V21.9339H69.0273V23.8689H74.1523V26.2909H69.0273V28.3909H75.0645V30.8999L65.8145 30.904ZM47.4238 30.904L46.5117 28.6809H41.6445L40.7324 30.904H37.4043L42.4707 19.404H45.7188L50.8105 30.904H47.4238ZM42.584 26.2639H45.5449L44.0625 22.5899L42.584 26.2639ZM87.707 12.1129C86.7556 11.6234 85.9721 10.8608 85.457 9.92287C84.9043 8.99337 84.6189 7.92926 84.6328 6.84792C84.6225 5.76703 84.9076 4.70387 85.457 3.77297C85.99 2.86253 86.7701 2.12177 87.707 1.63686C88.7077 1.11727 89.8218 0.854086 90.9492 0.870873C91.9281 0.861367 92.8981 1.05443 93.7988 1.43789C94.6197 1.80601 95.3426 2.3624 95.9082 3.06191L93.8242 4.93996C93.5052 4.52667 93.0948 4.19132 92.627 3.9595C92.1592 3.72768 91.6451 3.60546 91.123 3.60195C90.5372 3.58154 89.9571 3.71976 89.4434 4.00198C88.9567 4.26831 88.5611 4.67392 88.3066 5.16689C88.0334 5.69486 87.8956 6.28261 87.9062 6.87698C87.8988 7.47099 88.0365 8.05785 88.3066 8.58694C88.5707 9.07286 88.964 9.47615 89.4434 9.75198C89.9638 10.0163 90.5393 10.1533 91.123 10.1519C91.6464 10.1555 92.1639 10.0365 92.6328 9.8041C93.1017 9.57172 93.5102 9.2325 93.8242 8.81387L95.9082 10.6909C95.3501 11.3981 94.6251 11.9561 93.7988 12.315C92.898 12.6979 91.9281 12.8905 90.9492 12.8809C89.8211 12.8977 88.7062 12.6342 87.7051 12.1139L87.707 12.1129ZM128.844 12.653V1.15298H137.869V3.66189H132.057V5.5989H137.158V8.04287H132.057V10.1519H138.066V12.6519L128.844 12.653ZM119.225 12.653L114.299 1.15298H117.828L120.928 8.64089L124.115 1.15298H127.336L122.406 12.653H119.225ZM109.314 12.653V1.15298H112.562V12.653H109.314ZM100.52 12.653V3.74587H96.9863V1.1509H107.287V3.74587H103.758V12.653H100.52ZM73.3887 12.653V1.15298H82.3828V3.66189H76.6035V5.5989H81.7031V8.04287H76.6035V10.1519H82.6094V12.6519L73.3887 12.653ZM62 12.653V1.15298H71.0234V3.66189H65.2734V6.19192H70.3379V8.72793H65.2734V12.6549L62 12.653ZM50.6445 12.653V1.15298H59.6641V3.66189H53.8867V6.19192H58.9863V8.72793H53.8867V12.6549L50.6445 12.653ZM38.7695 12.653V1.15298H47.7949V3.66189H42.0176V5.5989H47.1094V8.04287H42.0176V10.1519H48.0176V12.6519L38.7695 12.653Z" fill="#98D736"/>
</g>
<defs>
<clipPath id="clip0_438_7832">
<rect width="138.068" height="30.26" fill="white" transform="translate(0 0.870117)"/>
</clipPath>
</defs>
</svg>
