<svg width="21" height="31" viewBox="0 0 21 31" fill="none" xmlns="http://www.w3.org/2000/svg">
<path fill-rule="evenodd" clip-rule="evenodd" d="M19.9098 10.7498C19.9098 16.026 16.2435 19.061 13.496 21.9998C11.851 23.7598 10.5348 29.4998 10.5348 29.4998C10.5348 29.4998 9.22229 23.7635 7.58104 22.0085C4.83104 19.071 1.15979 16.031 1.15979 10.7498C1.15979 5.57209 5.35712 1.37476 10.5348 1.37476C15.7125 1.37476 19.9098 5.57209 19.9098 10.7498Z" stroke="white" stroke-width="1.5" stroke-linecap="round" stroke-linejoin="round"/>
<path fill-rule="evenodd" clip-rule="evenodd" d="M10.5348 14.4998C12.6059 14.4998 14.2848 12.8208 14.2848 10.7498C14.2848 8.67869 12.6059 6.99976 10.5348 6.99976C8.46372 6.99976 6.78479 8.67869 6.78479 10.7498C6.78479 12.8208 8.46372 14.4998 10.5348 14.4998Z" stroke="white" stroke-width="1.5" stroke-linecap="round" stroke-linejoin="round"/>
</svg>
